<svg xmlns="http://www.w3.org/2000/svg" xmlns:svg="http://www.w3.org/2000/svg" id="svg2" width="104" height="104" version="1.1" xml:space="preserve"><metadata id="metadata8"/><defs id="defs6"><clipPath id="clipPath16" clipPathUnits="userSpaceOnUse"><path id="path18" d="M 0.001,0 104,0 l 0,103.999 -103.999,0 L 0.001,0 z"/></clipPath><clipPath id="clipPath44" clipPathUnits="userSpaceOnUse"><path id="path46" d="M 0.001,0 104,0 l 0,103.999 -103.999,0 L 0.001,0 z"/></clipPath></defs><g id="g10" transform="matrix(1.25,0,0,-1.25,0,104)"><g id="g3162" transform="translate(1.6,1.6000202)"><rect id="rect3075" width="80" height="80" x="0" y="-80" transform="scale(1,-1)" style="fill:#fff;fill-opacity:1;stroke:none"/><g id="g3106" transform="matrix(0.90495874,0,0,0.90495874,1516.1316,1675.1362)"><g id="g3108" transform="matrix(0.89826377,0,0,0.89826377,-1677.65,-1854.3132)"><g id="g3110"><g id="g3112" clip-path="url(#clipPath16)"><g id="g3114" transform="translate(87.6109,28.0849)"><path style="fill:none;stroke:#f54a42;stroke-width:3.75;stroke-linecap:round;stroke-linejoin:miter;stroke-miterlimit:10;stroke-opacity:1;stroke-dasharray:none" id="path3116" d="M 0,0 C 0,1.945 1.575,3.523 3.522,3.523 5.47,3.523 7.045,1.945 7.045,0 7.045,-1.944 5.47,-3.522 3.522,-3.522 1.575,-3.522 0,-1.944 0,0 z"/></g><g id="g3118" transform="translate(9.3452,28.0849)"><path style="fill:none;stroke:#f54a42;stroke-width:3.75;stroke-linecap:round;stroke-linejoin:miter;stroke-miterlimit:10;stroke-opacity:1;stroke-dasharray:none" id="path3120" d="M 0,0 C 0,1.945 1.576,3.523 3.522,3.523 5.469,3.523 7.045,1.945 7.045,0 7.045,-1.944 5.469,-3.522 3.522,-3.522 1.576,-3.522 0,-1.944 0,0 z"/></g><g id="g3122" transform="translate(48.4766,96.6347)"><path style="fill:none;stroke:#f54a42;stroke-width:3.75;stroke-linecap:round;stroke-linejoin:miter;stroke-miterlimit:10;stroke-opacity:1;stroke-dasharray:none" id="path3124" d="M 0,0 C 0,1.945 1.577,3.522 3.523,3.522 5.469,3.522 7.044,1.945 7.044,0 7.044,-1.945 5.469,-3.523 3.523,-3.523 1.577,-3.523 0,-1.945 0,0 z"/></g></g></g><g id="g3126" transform="translate(40.5142,89.7778)"><path style="fill:none;stroke:#f54a42;stroke-width:3.75;stroke-linecap:round;stroke-linejoin:miter;stroke-miterlimit:10;stroke-opacity:1;stroke-dasharray:none" id="path3128" d="m 0,0 -27.644,-16.507 -0.002,-22.978"/></g><g id="g3130" transform="translate(91.1314,36.5996)"><path style="fill:none;stroke:#f54a42;stroke-width:3.75;stroke-linecap:round;stroke-linejoin:miter;stroke-miterlimit:10;stroke-opacity:1;stroke-dasharray:none" id="path3132" d="m 0,0 0.002,36.671 -23.701,14.15"/></g><g id="g3134"><g id="g3136" clip-path="url(#clipPath44)"><g id="g3138" transform="translate(22.8013,22.3506)"><path style="fill:none;stroke:#f54a42;stroke-width:3.75;stroke-linecap:round;stroke-linejoin:miter;stroke-miterlimit:10;stroke-opacity:1;stroke-dasharray:none" id="path3140" d="M 0,0 29.198,-16.858 50.713,-4.437"/></g></g></g><g id="g3142" transform="translate(91.1314,36.5996)"><path style="fill:none;stroke:#f54a42;stroke-width:3.75;stroke-linecap:round;stroke-linejoin:miter;stroke-miterlimit:10;stroke-opacity:1;stroke-dasharray:none" id="path3144" d="M 0,0 0.002,-2.643"/></g><g id="g3146" transform="translate(22.8013,22.3506)"><path style="fill:none;stroke:#f54a42;stroke-width:3.75;stroke-linecap:round;stroke-linejoin:miter;stroke-miterlimit:10;stroke-opacity:1;stroke-dasharray:none" id="path3148" d="M 0,0 -4.839,2.867"/></g><g id="g3150" transform="translate(40.5142,89.7778)"><path style="fill:none;stroke:#f54a42;stroke-width:3.75;stroke-linecap:round;stroke-linejoin:miter;stroke-miterlimit:10;stroke-opacity:1;stroke-dasharray:none" id="path3152" d="M 0,0 6.458,3.856"/></g><g id="g3154" transform="translate(32,65.5)"><path style="fill:#f54a42;fill-opacity:1;fill-rule:nonzero;stroke:none" id="path3156" d="m 0,0 0,-9.129 12.935,0 0,-25.871 6.14,0 0,35 L 0,0 z"/></g><g id="g3158" transform="translate(72,65.5)"><path style="fill:#f54a42;fill-opacity:1;fill-rule:nonzero;stroke:none" id="path3160" d="m 0,0 -19.292,0 0,-34.998 6.144,0 0,25.869 L 0,-9.129 0,0 z"/></g></g></g></g></g></svg>